<?xml version="1.0" encoding="utf-8"?>
<svg width="32px" height="28px" viewBox="0 0 32 28" version="1.1" xmlns:xlink="http://www.w3.org/1999/xlink" xmlns="http://www.w3.org/2000/svg">
  <desc>Created with Lunacy</desc>
  <g id="filled/chevron-down-XS-quite">
    <path d="M0 0L0 28L32 28L32 0L0 0Z" id="bounds" fill="#1C8FF8" fill-opacity="0" stroke="none" />
    <path d="M6.29473 0.977942L1.25689 5.47246Q1.14215 5.57482 1.03962 5.68491Q0.93709 5.795 0.8476 5.91192Q0.75811 6.02884 0.682392 6.15163Q0.606673 6.27443 0.545344 6.40209Q0.484015 6.52976 0.437575 6.66126Q0.391134 6.79276 0.359962 6.92703Q0.32879 7.06129 0.31314 7.19721Q0.29749 7.33314 0.29749 7.46962Q0.29749 7.60611 0.31314 7.74204Q0.32879 7.87796 0.359962 8.01222Q0.391134 8.14649 0.437575 8.27799Q0.484015 8.40949 0.545344 8.53716Q0.606673 8.66482 0.682392 8.78762Q0.75811 8.91041 0.8476 9.02733Q0.93709 9.14425 1.03962 9.25434Q1.14215 9.36443 1.25689 9.46679L6.29473 13.9613Q6.40947 14.0637 6.52243 14.1505Q6.6354 14.2373 6.74567 14.3078Q6.85594 14.3783 6.96262 14.432Q7.0693 14.4857 7.17151 14.5221Q7.27373 14.5585 7.37065 14.5773Q7.46757 14.5961 7.5584 14.5972Q7.64923 14.5983 7.73324 14.5816Q7.81724 14.565 7.89373 14.5307Q7.97022 14.4964 8.03858 14.4449Q8.10693 14.3933 8.16659 14.3248Q8.22625 14.2563 8.27673 14.1714Q8.32721 14.0866 8.3681 13.9861Q8.40898 13.8856 8.43994 13.7702Q8.4709 13.6549 8.49168 13.5256Q8.51247 13.3964 8.5229 13.2543Q8.53333 13.1122 8.53333 12.9585L8.53333 1.98077Q8.53333 1.82701 8.5229 1.68493Q8.51247 1.54286 8.49168 1.41362Q8.4709 1.28438 8.43994 1.16904Q8.40898 1.0537 8.3681 0.953194Q8.32721 0.852689 8.27673 0.767841Q8.22625 0.682992 8.16659 0.614491Q8.10693 0.545991 8.03858 0.494397Q7.97022 0.442803 7.89373 0.408537Q7.81724 0.374271 7.73324 0.357612Q7.64923 0.340953 7.5584 0.342037Q7.46757 0.343122 7.37065 0.36194Q7.27373 0.380758 7.17151 0.417158Q7.0693 0.453557 6.96262 0.50724Q6.85594 0.560922 6.74567 0.631451Q6.6354 0.70198 6.52243 0.78878Q6.40947 0.87558 6.29473 0.977942Z" transform="matrix(1.192488E-08 1 1 -1.192488E-08 9.6 10.26667)" id="Line" fill="#939DA7" stroke="none" />
  </g>
</svg>